<svg xmlns="http://www.w3.org/2000/svg" xmlns:xlink="http://www.w3.org/1999/xlink" width="500" zoomAndPan="magnify" viewBox="0 0 375 374.999991" height="500" preserveAspectRatio="xMidYMid meet" version="1.0"><defs><g/><clipPath id="810412d4f7"><path d="M 277 102.734375 L 302 102.734375 L 302 164 L 277 164 Z M 277 102.734375 " clip-rule="nonzero"/></clipPath><clipPath id="80585b4a0e"><path d="M 201.574219 118 L 332 118 L 332 198.734375 L 201.574219 198.734375 Z M 201.574219 118 " clip-rule="nonzero"/></clipPath><clipPath id="ba9254f05a"><path d="M 0.398438 18 L 39 18 L 39 69 L 0.398438 69 Z M 0.398438 18 " clip-rule="nonzero"/></clipPath><clipPath id="5606d8b6bb"><rect x="0" width="237" y="0" height="149"/></clipPath></defs><path fill="#03163c" d="M 223.046875 156.054688 L 223.167969 156.054688 C 224.15625 156.09375 225.089844 156.542969 225.734375 157.285156 L 236.351562 169.574219 L 236.351562 133.261719 L 211.558594 133.261719 L 211.558594 166.066406 L 220.527344 157.097656 C 221.195312 156.425781 222.09375 156.054688 223.046875 156.054688 Z M 223.046875 156.054688 " fill-opacity="1" fill-rule="nonzero"/><path fill="#03163c" d="M 269.089844 171.828125 L 269.089844 154.875 L 244.296875 154.875 L 244.296875 178.773438 L 252.488281 188.257812 Z M 269.089844 171.828125 " fill-opacity="1" fill-rule="nonzero"/><g clip-path="url(#810412d4f7)"><path fill="#03163c" d="M 301.832031 102.746094 L 277.039062 102.746094 L 277.039062 163.964844 L 301.832031 139.429688 Z M 301.832031 102.746094 " fill-opacity="1" fill-rule="nonzero"/></g><g clip-path="url(#80585b4a0e)"><path fill="#03163c" d="M 331.234375 119.503906 C 330.804688 119.007812 330.140625 118.78125 329.492188 118.898438 L 313.113281 121.933594 C 312.097656 122.125 311.425781 123.097656 311.617188 124.113281 C 311.804688 125.128906 312.777344 125.800781 313.792969 125.609375 L 323.730469 123.773438 L 252.394531 194.363281 L 224.457031 162.023438 C 224.117188 161.628906 223.628906 161.394531 223.113281 161.375 C 222.589844 161.359375 222.085938 161.554688 221.71875 161.921875 L 201.574219 182.070312 L 201.574219 187.355469 L 222.941406 165.988281 L 250.871094 198.320312 C 251.210938 198.710938 251.695312 198.945312 252.214844 198.964844 C 252.730469 198.980469 253.234375 198.789062 253.601562 198.425781 L 325.878906 126.902344 L 322.925781 136.0625 C 322.609375 137.042969 323.148438 138.097656 324.128906 138.414062 C 324.320312 138.476562 324.515625 138.503906 324.707031 138.503906 C 325.492188 138.503906 326.226562 138 326.484375 137.207031 L 331.609375 121.3125 C 331.8125 120.683594 331.671875 120 331.238281 119.503906 Z M 331.234375 119.503906 " fill-opacity="1" fill-rule="nonzero"/></g><g transform="matrix(1, 0, 0, 1, 50, 124)"><g clip-path="url(#5606d8b6bb)"><g clip-path="url(#ba9254f05a)"><g fill="#03163c" fill-opacity="1"><g transform="translate(2.609894, 67.362553)"><g><path d="M 16.203125 1.109375 C 12.410156 1.109375 8.976562 0.5 5.90625 -0.71875 C 2.84375 -1.945312 0.320312 -3.738281 -1.65625 -6.09375 L 7.125 -16.46875 C 8.414062 -14.851562 9.6875 -13.65625 10.9375 -12.875 C 12.1875 -12.09375 13.476562 -11.703125 14.8125 -11.703125 C 16.519531 -11.703125 17.820312 -12.207031 18.71875 -13.21875 C 19.625 -14.238281 20.078125 -15.738281 20.078125 -17.71875 L 20.078125 -36.125 L 3.59375 -36.125 L 3.59375 -48.453125 L 36.203125 -48.453125 L 36.203125 -18.6875 C 36.203125 -12.09375 34.503906 -7.144531 31.109375 -3.84375 C 27.722656 -0.539062 22.753906 1.109375 16.203125 1.109375 Z M 16.203125 1.109375 "/></g></g></g></g><g fill="#03163c" fill-opacity="1"><g transform="translate(42.336108, 67.362553)"><g><path d="M 24.71875 -12.1875 L 20.28125 -12.1875 L 20.28125 0 L 3.953125 0 L 3.953125 -48.453125 L 27.265625 -48.453125 C 31.742188 -48.453125 35.644531 -47.710938 38.96875 -46.234375 C 42.289062 -44.753906 44.851562 -42.628906 46.65625 -39.859375 C 48.457031 -37.097656 49.359375 -33.867188 49.359375 -30.171875 C 49.359375 -26.710938 48.570312 -23.691406 47 -21.109375 C 45.425781 -18.523438 43.164062 -16.472656 40.21875 -14.953125 L 50.390625 0 L 32.953125 0 Z M 32.875 -30.171875 C 32.875 -31.972656 32.320312 -33.367188 31.21875 -34.359375 C 30.113281 -35.359375 28.453125 -35.859375 26.234375 -35.859375 L 20.28125 -35.859375 L 20.28125 -24.5 L 26.234375 -24.5 C 28.453125 -24.5 30.113281 -24.992188 31.21875 -25.984375 C 32.320312 -26.984375 32.875 -28.378906 32.875 -30.171875 Z M 32.875 -30.171875 "/></g></g></g><g fill="#03163c" fill-opacity="1"><g transform="translate(93.897133, 67.362553)"><g><path d="M 22.015625 1.109375 C 17.992188 1.109375 14.078125 0.660156 10.265625 -0.234375 C 6.460938 -1.140625 3.34375 -2.351562 0.90625 -3.875 L 6.15625 -15.78125 C 8.46875 -14.445312 11.050781 -13.375 13.90625 -12.5625 C 16.769531 -11.757812 19.519531 -11.359375 22.15625 -11.359375 C 24.414062 -11.359375 26.03125 -11.578125 27 -12.015625 C 27.96875 -12.453125 28.453125 -13.109375 28.453125 -13.984375 C 28.453125 -14.992188 27.816406 -15.753906 26.546875 -16.265625 C 25.273438 -16.773438 23.1875 -17.328125 20.28125 -17.921875 C 16.539062 -18.710938 13.425781 -19.554688 10.9375 -20.453125 C 8.445312 -21.347656 6.273438 -22.820312 4.421875 -24.875 C 2.578125 -26.9375 1.65625 -29.71875 1.65625 -33.21875 C 1.65625 -36.269531 2.507812 -39.039062 4.21875 -41.53125 C 5.925781 -44.019531 8.472656 -45.976562 11.859375 -47.40625 C 15.253906 -48.84375 19.375 -49.5625 24.21875 -49.5625 C 27.539062 -49.5625 30.804688 -49.203125 34.015625 -48.484375 C 37.222656 -47.773438 40.050781 -46.726562 42.5 -45.34375 L 37.578125 -33.5 C 32.828125 -35.894531 28.332031 -37.09375 24.09375 -37.09375 C 19.894531 -37.09375 17.796875 -36.082031 17.796875 -34.0625 C 17.796875 -33.09375 18.414062 -32.363281 19.65625 -31.875 C 20.90625 -31.382812 22.957031 -30.863281 25.8125 -30.3125 C 29.507812 -29.625 32.625 -28.828125 35.15625 -27.921875 C 37.695312 -27.023438 39.898438 -25.5625 41.765625 -23.53125 C 43.640625 -21.5 44.578125 -18.734375 44.578125 -15.234375 C 44.578125 -12.179688 43.722656 -9.421875 42.015625 -6.953125 C 40.304688 -4.484375 37.753906 -2.519531 34.359375 -1.0625 C 30.972656 0.382812 26.859375 1.109375 22.015625 1.109375 Z M 22.015625 1.109375 "/></g></g></g><g fill="#03163c" fill-opacity="1"><g transform="translate(2.609894, 130.944999)"><g><path d="M 3.953125 -48.453125 L 20.28125 -48.453125 L 20.28125 0 L 3.953125 0 Z M 3.953125 -48.453125 "/></g></g></g><g fill="#03163c" fill-opacity="1"><g transform="translate(26.833199, 130.944999)"><g><path d="M 29.765625 -38.5625 C 34.421875 -38.5625 38.164062 -37.148438 41 -34.328125 C 43.84375 -31.515625 45.265625 -27.269531 45.265625 -21.59375 L 45.265625 0 L 29.625 0 L 29.625 -18.890625 C 29.625 -23.234375 28.078125 -25.40625 24.984375 -25.40625 C 23.234375 -25.40625 21.816406 -24.789062 20.734375 -23.5625 C 19.648438 -22.34375 19.109375 -20.421875 19.109375 -17.796875 L 19.109375 0 L 3.453125 0 L 3.453125 -37.859375 L 18.34375 -37.859375 L 18.34375 -34.125 C 19.820312 -35.601562 21.53125 -36.710938 23.46875 -37.453125 C 25.40625 -38.191406 27.503906 -38.5625 29.765625 -38.5625 Z M 29.765625 -38.5625 "/></g></g></g><g fill="#03163c" fill-opacity="1"><g transform="translate(75.41822, 130.944999)"><g><path d="M 45.609375 -37.859375 L 30.390625 0 L 14.1875 0 L -1.03125 -37.859375 L 15.015625 -37.859375 L 22.640625 -17.578125 L 30.796875 -37.859375 Z M 45.609375 -37.859375 "/></g></g></g><g fill="#03163c" fill-opacity="1"><g transform="translate(119.989096, 130.944999)"><g><path d="M 43.75 -18.96875 C 43.75 -18.738281 43.675781 -17.515625 43.53125 -15.296875 L 17.234375 -15.296875 C 17.785156 -13.867188 18.707031 -12.773438 20 -12.015625 C 21.289062 -11.253906 22.90625 -10.875 24.84375 -10.875 C 26.507812 -10.875 27.90625 -11.078125 29.03125 -11.484375 C 30.164062 -11.898438 31.398438 -12.617188 32.734375 -13.640625 L 40.90625 -5.40625 C 37.21875 -1.34375 31.703125 0.6875 24.359375 0.6875 C 19.796875 0.6875 15.78125 -0.148438 12.3125 -1.828125 C 8.851562 -3.515625 6.175781 -5.859375 4.28125 -8.859375 C 2.394531 -11.859375 1.453125 -15.226562 1.453125 -18.96875 C 1.453125 -22.75 2.382812 -26.128906 4.25 -29.109375 C 6.125 -32.085938 8.6875 -34.40625 11.9375 -36.0625 C 15.1875 -37.726562 18.84375 -38.5625 22.90625 -38.5625 C 26.738281 -38.5625 30.234375 -37.796875 33.390625 -36.265625 C 36.554688 -34.742188 39.070312 -32.503906 40.9375 -29.546875 C 42.8125 -26.597656 43.75 -23.070312 43.75 -18.96875 Z M 23.046875 -27.890625 C 21.429688 -27.890625 20.09375 -27.453125 19.03125 -26.578125 C 17.96875 -25.703125 17.273438 -24.457031 16.953125 -22.84375 L 29.140625 -22.84375 C 28.816406 -24.414062 28.125 -25.648438 27.0625 -26.546875 C 26 -27.441406 24.660156 -27.890625 23.046875 -27.890625 Z M 23.046875 -27.890625 "/></g></g></g><g fill="#03163c" fill-opacity="1"><g transform="translate(165.182849, 130.944999)"><g><path d="M 18.28125 0.6875 C 15.039062 0.6875 11.851562 0.34375 8.71875 -0.34375 C 5.582031 -1.039062 3.046875 -1.941406 1.109375 -3.046875 L 5.40625 -13.359375 C 7.15625 -12.296875 9.226562 -11.460938 11.625 -10.859375 C 14.03125 -10.265625 16.363281 -9.96875 18.625 -9.96875 C 20.414062 -9.96875 21.671875 -10.117188 22.390625 -10.421875 C 23.109375 -10.722656 23.46875 -11.171875 23.46875 -11.765625 C 23.46875 -12.367188 23.015625 -12.785156 22.109375 -13.015625 C 21.210938 -13.242188 19.75 -13.472656 17.71875 -13.703125 C 14.625 -14.078125 11.992188 -14.550781 9.828125 -15.125 C 7.660156 -15.695312 5.753906 -16.8125 4.109375 -18.46875 C 2.472656 -20.132812 1.65625 -22.515625 1.65625 -25.609375 C 1.65625 -28.054688 2.394531 -30.25 3.875 -32.1875 C 5.351562 -34.125 7.554688 -35.671875 10.484375 -36.828125 C 13.410156 -37.984375 16.929688 -38.5625 21.046875 -38.5625 C 23.898438 -38.5625 26.703125 -38.296875 29.453125 -37.765625 C 32.203125 -37.234375 34.546875 -36.457031 36.484375 -35.4375 L 32.1875 -25.125 C 28.863281 -26.96875 25.21875 -27.890625 21.25 -27.890625 C 17.832031 -27.890625 16.125 -27.289062 16.125 -26.09375 C 16.125 -25.5 16.582031 -25.070312 17.5 -24.8125 C 18.425781 -24.5625 19.882812 -24.320312 21.875 -24.09375 C 24.96875 -23.71875 27.585938 -23.226562 29.734375 -22.625 C 31.878906 -22.03125 33.769531 -20.898438 35.40625 -19.234375 C 37.039062 -17.578125 37.859375 -15.203125 37.859375 -12.109375 C 37.859375 -9.753906 37.117188 -7.609375 35.640625 -5.671875 C 34.171875 -3.734375 31.957031 -2.1875 29 -1.03125 C 26.050781 0.113281 22.476562 0.6875 18.28125 0.6875 Z M 18.28125 0.6875 "/></g></g></g><g fill="#03163c" fill-opacity="1"><g transform="translate(204.286178, 130.944999)"><g><path d="M 31.359375 -1.3125 C 29.003906 0.0195312 25.796875 0.6875 21.734375 0.6875 C 16.429688 0.6875 12.347656 -0.585938 9.484375 -3.140625 C 6.617188 -5.703125 5.1875 -9.546875 5.1875 -14.671875 L 5.1875 -24.359375 L 0 -24.359375 L 0 -35.78125 L 5.1875 -35.78125 L 5.1875 -46.375 L 20.828125 -46.375 L 20.828125 -35.78125 L 28.59375 -35.78125 L 28.59375 -24.359375 L 20.828125 -24.359375 L 20.828125 -14.8125 C 20.828125 -13.65625 21.128906 -12.753906 21.734375 -12.109375 C 22.335938 -11.460938 23.125 -11.140625 24.09375 -11.140625 C 25.425781 -11.140625 26.601562 -11.488281 27.625 -12.1875 Z M 31.359375 -1.3125 "/></g></g></g></g></g></svg>