<svg xmlns="http://www.w3.org/2000/svg" xmlns:xlink="http://www.w3.org/1999/xlink" width="500" zoomAndPan="magnify" viewBox="0 0 375 374.999991" height="500" preserveAspectRatio="xMidYMid meet" version="1.0"><defs><clipPath id="633d1c39c5"><path d="M 214 63.960938 L 278 63.960938 L 278 222 L 214 222 Z M 214 63.960938 " clip-rule="nonzero"/></clipPath><clipPath id="ed193aebdd"><path d="M 20.34375 105 L 354.84375 105 L 354.84375 310.710938 L 20.34375 310.710938 Z M 20.34375 105 " clip-rule="nonzero"/></clipPath></defs><path fill="#03163c" d="M 75.457031 200.824219 L 75.769531 200.824219 C 78.3125 200.917969 80.707031 202.074219 82.363281 203.980469 L 109.609375 235.523438 L 109.609375 142.3125 L 45.972656 142.3125 L 45.972656 226.519531 L 68.996094 203.496094 C 70.714844 201.769531 73.011719 200.824219 75.457031 200.824219 Z M 75.457031 200.824219 " fill-opacity="1" fill-rule="nonzero"/><path fill="#03163c" d="M 193.644531 241.308594 L 193.644531 197.785156 L 130.007812 197.785156 L 130.007812 259.136719 L 151.035156 283.480469 Z M 193.644531 241.308594 " fill-opacity="1" fill-rule="nonzero"/><g clip-path="url(#633d1c39c5)"><path fill="#03163c" d="M 277.691406 63.984375 L 214.050781 63.984375 L 214.050781 221.125 L 277.691406 158.152344 Z M 277.691406 63.984375 " fill-opacity="1" fill-rule="nonzero"/></g><g clip-path="url(#ed193aebdd)"><path fill="#03163c" d="M 353.160156 107.003906 C 352.046875 105.734375 350.351562 105.148438 348.683594 105.453125 L 306.640625 113.242188 C 304.03125 113.726562 302.316406 116.230469 302.800781 118.835938 C 303.285156 121.445312 305.78125 123.160156 308.386719 122.679688 L 333.894531 117.957031 L 150.789062 299.148438 L 79.082031 216.136719 C 78.214844 215.125 76.957031 214.527344 75.628906 214.476562 C 74.292969 214.433594 73 214.9375 72.054688 215.882812 L 20.34375 267.59375 L 20.34375 281.164062 L 75.195312 226.3125 L 146.882812 309.304688 C 147.753906 310.308594 148.996094 310.90625 150.324219 310.957031 C 151.652344 311 152.945312 310.507812 153.890625 309.578125 L 339.40625 125.996094 L 331.828125 149.5 C 331.011719 152.019531 332.398438 154.726562 334.917969 155.542969 C 335.410156 155.703125 335.90625 155.773438 336.398438 155.773438 C 338.417969 155.773438 340.300781 154.480469 340.960938 152.445312 L 354.121094 111.644531 C 354.640625 110.035156 354.277344 108.273438 353.160156 107.003906 Z M 353.160156 107.003906 " fill-opacity="1" fill-rule="nonzero"/></g></svg>